<?xml version="1.0" encoding="UTF-8" standalone="no"?>
<svg width="125px" height="125px" viewBox="0 0 125 125" version="1.1" xmlns="http://www.w3.org/2000/svg" xmlns:xlink="http://www.w3.org/1999/xlink">
    <!-- Generator: Sketch 3.6.1 (26313) - http://www.bohemiancoding.com/sketch -->
    <title>Engagement</title>
    <desc>Created with Sketch.</desc>
    <defs></defs>
    <g id="Page-1" stroke="none" stroke-width="1" fill="none" fill-rule="evenodd">
        <g id="Engagement" stroke="#FFFFFF">
            <g id="Group" transform="translate(12.000000, 23.000000)">
                <path d="M32.7094103,65.8783784 L20.7227726,65.8783784 C15.0883971,65.8783784 10.5208333,61.1670058 10.5208333,55.3304161 L10.5208333,10.5479623 C10.5208333,4.72248359 15.0852765,0 20.7240643,0 L90.796769,0 C96.4318579,0 101,4.71137259 101,10.5479623 L101,55.3304161 C101,61.1558948 96.4237339,65.8783784 90.7963237,65.8783784 L65.3952333,65.8783784" id="Rectangle-3" stroke-width="3"></path>
                <path d="M2.55842872,76.7789548 C-4.87777844,70.2857846 5.4305184,56.2441732 13.916714,63.6541761 C22.4029096,71.0641791 24.4965494,72.8923094 24.4965494,72.8923094 L30.5040613,78.137967 L30.49827,66.9632996 C30.4864206,54.3177391 30.4864205,34.6636491 30.4864205,24.7664144 C30.4864206,14.8691798 48.5149968,13.4716952 48.5149963,24.7664144 C48.5149957,36.0611337 48.5149958,65.6100266 48.5149958,65.6100266" id="Path-6" stroke-width="5"></path>
                <path d="M49.8441558,41.8445946 C49.8441558,41.8445946 53.8677099,41.8445946 56.9217006,41.8445946 C66.3134901,41.8445946 66.3134902,50.0522405 66.3134901,53.515548 C66.3134899,56.9788555 66.3134895,67.200195 66.3134895,67.200195" id="Path-7" stroke-width="5"></path>
            </g>
        </g>
    </g>
</svg>