<?xml version="1.0" encoding="UTF-8" standalone="no"?>
<svg width="52px" height="42px" viewBox="0 0 52 42" version="1.1" xmlns="http://www.w3.org/2000/svg" xmlns:xlink="http://www.w3.org/1999/xlink">
    <!-- Generator: Sketch 3.6 (26304) - http://www.bohemiancoding.com/sketch -->
    <title>LearnMoreIconOrange</title>
    <desc>Created with Sketch.</desc>
    <defs></defs>
    <g id="Page-1" stroke="none" stroke-width="1" fill="none" fill-rule="evenodd">
        <g id="LearnMoreIconOrange" stroke="#843713" stroke-width="2">
            <g id="Group" transform="translate(2.000000, 2.000000)">
                <path d="M15.5450663,31.25 L9.84844637,31.25 C7.17072338,31.25 5,29.0151181 5,26.2464794 L5,5.00352059 C5,2.24015247 7.16924032,0 9.84906028,0 L43.1509397,0 C45.8290018,0 48,2.23488187 48,5.00352059 L48,26.2464794 C48,29.0098475 45.8251409,31.25 43.1507281,31.25 L31.0789228,31.25" id="Rectangle-3"></path>
                <path d="M1.21588692,35.9464273 C-2.31815213,32.8663337 2.58084043,26.2055693 6.61388389,29.7205707 C10.6469273,33.2355721 11.6419245,34.1027621 11.6419245,34.1027621 L14.4969796,36.5910869 L14.4942273,31.2902831 C14.4885959,25.291748 14.4885959,15.9686541 14.4885959,11.273812 C14.4885959,6.5789699 23.0566322,5.91606054 23.0566319,11.273812 C23.0566316,16.6315634 23.0566317,30.6483459 23.0566317,30.6483459" id="Path-6"></path>
                <path d="M23.6883117,19.375 C23.6883117,19.375 25.6004958,19.375 27.0518973,19.375 C31.515322,19.375 31.5153221,23.2703901 31.515322,24.9140932 C31.5153219,26.5577964 31.515322,30.7815548 31.515322,30.7815548" id="Path-7"></path>
            </g>
        </g>
    </g>
</svg>