<?xml version="1.0" encoding="UTF-8" standalone="no"?>
<svg width="125px" height="125px" viewBox="0 0 125 125" version="1.1" xmlns="http://www.w3.org/2000/svg" xmlns:xlink="http://www.w3.org/1999/xlink">
    <!-- Generator: Sketch 3.6.1 (26313) - http://www.bohemiancoding.com/sketch -->
    <title>Management Icon</title>
    <desc>Created with Sketch.</desc>
    <defs></defs>
    <g id="Page-1" stroke="none" stroke-width="1" fill="none" fill-rule="evenodd">
        <g id="Management-Icon" stroke="#FFFFFF">
            <g id="Group-6" transform="translate(9.000000, 13.000000)">
                <ellipse id="Oval-6" stroke-width="5" cx="53.5813953" cy="15.1260504" rx="15.0697674" ry="15.1260504"></ellipse>
                <path d="M15.9069767,43.697479 C21.4555119,43.697479 25.9534884,39.1827034 25.9534884,33.6134454 C25.9534884,28.0441874 21.4555119,23.5294118 15.9069767,23.5294118 C10.3584416,23.5294118 5.86046512,28.0441874 5.86046512,33.6134454 C5.86046512,39.1827034 10.3584416,43.697479 15.9069767,43.697479 Z" id="Oval-6" stroke-width="4"></path>
                <path d="M92.0930233,43.697479 C97.6415584,43.697479 102.139535,39.1827034 102.139535,33.6134454 C102.139535,28.0441874 97.6415584,23.5294118 92.0930233,23.5294118 C86.5444881,23.5294118 82.0465116,28.0441874 82.0465116,33.6134454 C82.0465116,39.1827034 86.5444881,43.697479 92.0930233,43.697479 Z" id="Oval-6" stroke-width="4"></path>
                <path d="M63.0583311,35.2941176 L69.6092507,35.2941176 C73.2415147,35.2941176 76.1860465,37.7910172 76.1860465,40.8669079 L76.1860465,94.4272098 C76.1860465,97.5049768 73.2371772,100 69.6122258,100 L37.5505649,100 C33.919944,100 30.9767442,97.5031005 30.9767442,94.4272098 L30.9767442,40.8669079 C30.9767442,37.7891408 33.9220816,35.2941176 37.5563748,35.2941176 L44.6792085,35.2941176" id="Rectangle-12" stroke-width="5"></path>
                <path d="M12.5521466,100 L7.09301939,100 C3.17565295,100 0,96.9969838 0,93.2785297 L0,56.3013022 C0,52.5891367 3.17427452,49.5798319 7.09119771,49.5798319 L12.5521462,49.5798319" id="Rectangle-19" stroke-width="5"></path>
                <path d="M107.995849,100 L102.536722,100 C98.6193553,100 95.4437023,96.9969838 95.4437023,93.2785297 L95.4437023,56.3013022 C95.4437023,52.5891367 98.6179768,49.5798319 102.5349,49.5798319 L107.995849,49.5798319" id="Rectangle-19" stroke-width="5" transform="translate(101.719776, 74.789916) scale(-1, 1) translate(-101.719776, -74.789916) "></path>
            </g>
        </g>
    </g>
</svg>