<?xml version="1.0" encoding="UTF-8" standalone="no"?>
<svg width="125px" height="125px" viewBox="0 0 125 125" version="1.1" xmlns="http://www.w3.org/2000/svg" xmlns:xlink="http://www.w3.org/1999/xlink">
    <!-- Generator: Sketch 3.6.1 (26313) - http://www.bohemiancoding.com/sketch -->
    <title>Reach</title>
    <desc>Created with Sketch.</desc>
    <defs></defs>
    <g id="Page-1" stroke="none" stroke-width="1" fill="none" fill-rule="evenodd">
        <g id="Reach">
            <g id="Group" transform="translate(62.909069, 62.593504) rotate(-17.000000) translate(-62.909069, -62.593504) translate(13.409069, 19.593504)">
                <path d="M17.822653,35.1895286 C17.822653,30.7766339 21.1862776,25.9787988 25.3395388,24.4718054 L90.9767226,0.655629603 C95.128184,-0.850710705 98.4936085,1.51123325 98.4936085,5.9312111 L98.4936085,64.2133021 C98.4936085,68.6332656 95.0788046,71.1110522 90.8861256,69.7539683 L25.4301359,48.5672116 C21.2286391,47.2072736 17.822653,42.5266106 17.822653,38.1145732 L17.822653,35.1895286 Z" id="Rectangle-19" stroke="#FFFFFF" stroke-width="5"></path>
                <path d="M2.32702746e-13,26.1498275 C2.32702746e-13,25.5996645 0.442028397,25.0635299 0.98505366,24.9527949 L27.1559773,19.6159607 C27.7000074,19.5050208 28.141031,19.8727228 28.141031,20.4201853 L28.141031,52.6126932 C28.141031,53.167794 27.6990026,53.5190978 27.172353,53.4015096 L0.968677984,47.5508577 C0.433691906,47.4314081 2.32702746e-13,46.8915031 2.32702746e-13,46.3384169 L2.32702746e-13,26.1498275 Z" id="Rectangle-19" fill="#FFFFFF" transform="translate(14.070515, 36.480277) scale(-1, 1) translate(-14.070515, -36.480277) "></path>
                <path d="M12.609417,48.8688786 C12.609417,48.8688786 17.2991309,52.9067567 17.2991309,62.5366418 C17.2991309,72.1665269 12.2269665,71.0825081 11.7093987,77.5815514 C11.1918309,84.0805946 19.6929816,88.1778626 23.8832344,82.7767301 C28.0734871,77.3755977 31.0536094,71.4134288 31.0536094,62.5366418 C31.0536094,53.6598548 26.539777,43.891702 26.539777,43.891702" id="Path-162" fill="#FFFFFF"></path>
                <path d="M29.6692064,64.8463166 C29.6692064,64.8463166 41.7244661,68.3878392 43.3300761,52.4327188" id="Path-163" stroke="#FFFFFF" stroke-width="3"></path>
            </g>
        </g>
    </g>
</svg>