<?xml version="1.0" encoding="utf-8"?>
<!-- Generator: Adobe Illustrator 19.2.1, SVG Export Plug-In . SVG Version: 6.00 Build 0)  -->
<svg version="1.1" id="Layer_1" xmlns="http://www.w3.org/2000/svg" xmlns:xlink="http://www.w3.org/1999/xlink" x="0px" y="0px"
	 viewBox="0 0 248 223.5" enable-background="new 0 0 248 223.5" xml:space="preserve">
<g>
	<path fill="#FFFFFF" d="M0,130c0.3-0.7,0.8-1.5,0.9-2.2C6.6,103.9,22.3,89.6,46.8,86c17.6-2.6,34.9-0.4,52,3.5
		c1.6,0.4,3.2,0.7,4.8,1.1c3.9-7.7,1.5-16.4-6.2-21.9c-8.1-5.8-17.6-8.2-27.3-8.6c-10.4-0.4-20.8,0.6-32.5,0.9
		c0-9.1-0.1-19.1,0.1-29.2c0-0.9,1.9-2.2,3.1-2.4c30.6-5.2,60-2.1,86.6,14.7c20.9,13.2,27,33.9,22.9,57.1
		c-3.6,20.6-9.7,40.8-14.6,61.1c-3.2,13.7-6.2,27.5-9.3,41.7c-12.6-3.3-25.6-6.6-38.6-10.2c-1-0.3-2-2.3-2-3.6
		c0-4.1,0.4-8.2,0.6-11.3c-8.4,2.6-16.4,6.1-24.8,7.4c-25.7,4.1-51.1-10.4-58.9-32.8c-1-2.8-1.7-5.7-2.6-8.5C0,140,0,135,0,130z
		 M98.3,121.1c-8.5-3.2-22.2-5.1-29.9-3.7c-4,0.7-8.2,1.9-11.6,4.1c-10.5,6.5-11.9,22.7-2.9,30.1c11.7,9.6,32.5,4.9,38.2-9.1
		C94.8,135.5,96.2,128.1,98.3,121.1z"/>
	<path fill="#FFFFFF" d="M248,30c-3.4,9.4-8.8,16.6-19.4,18.5c-10.9,2-23.2-3.2-28.5-12.2c-5-8.6-4.3-20.5,2.7-27.8
		c3.5-3.7,8.7-5.7,13.1-8.5c3.3,0,6.7,0,10,0c10.5,2.6,18.3,8.4,22,19C248,22.7,248,26.3,248,30z"/>
	<path fill="#FFFFFF" d="M196.1,223.5c-15.7-4.1-30.8-8.1-46.6-12.2c13-50.3,25.8-100.3,38.9-151c15.7,4.1,31,8.1,46.6,12.2
		C222,122.9,209.1,172.8,196.1,223.5z"/>
</g>
</svg>
