<?xml version="1.0" encoding="utf-8"?>
<!-- Generator: Adobe Illustrator 19.2.1, SVG Export Plug-In . SVG Version: 6.00 Build 0)  -->
<svg version="1.1" id="Layer_1" xmlns="http://www.w3.org/2000/svg" xmlns:xlink="http://www.w3.org/1999/xlink" x="0px" y="0px"
	 viewBox="0 0 45 35.9" style="enable-background:new 0 0 45 35.9;" xml:space="preserve">
<style type="text/css">
	.st0{fill:#FFFFFF;}
</style>
<title>41-github</title>
<desc>Created with Sketch.</desc>
<g id="Page-1">
	<g id="_x34_1-github">
		<g id="Layer_1_1_">
			<g id="Group">
				<path id="Shape" class="st0" d="M44,17.8C44,17.8,44,17.8,44,17.8c0.1,0,0.2,0,0.2-0.1c0-0.1,0-0.2-0.1-0.2
					c-2-0.4-3.5-0.8-8.6-0.7c0.3-1.2,0.5-2.5,0.5-4.1c0-4.4-2.1-5.9-2.5-6.7C34,2.6,33.3,1.1,33,0.6c-1.2-0.4-4.2,1.1-5.8,2.2
					C24.6,2,19,2,16.9,2.9C13.1,0.2,11,0.6,11,0.6s-1.3,2.4-0.3,5.8C9.4,8,8.5,9.1,8.5,12.2c0,1.7,0.2,3.2,0.7,4.6
					c-2,0-6.3,0.3-8.2,0.8c-0.1,0-0.1,0.1-0.1,0.2c0,0.1,0.1,0.1,0.1,0.1c0,0,0,0,0,0c2-0.5,6.4-0.8,8.3-0.7
					c0.1,0.3,0.2,0.6,0.4,0.8c-4.9,0.1-6.2,0.8-8.2,1.3c-0.1,0-0.3,0.1-0.4,0.1c-0.1,0-0.1,0.1-0.1,0.2c0,0.1,0.1,0.1,0.1,0.1
					c0,0,0,0,0,0c0.1,0,0.3-0.1,0.4-0.1c2.1-0.5,3.4-1.2,8.3-1.3c1.5,2.6,4.2,4.3,9,4.7c-0.7,0.5-1.5,1.5-1.6,2.6
					c-0.8,0.5-2.5,0.7-3.9,0.3c-1.9-0.6-2.6-4.2-5.3-3.7c-0.6,0.1-0.5,0.5,0,0.8c0.8,0.5,1.6,1.2,2.3,2.7c0.5,1.1,1.5,3.1,4.6,3.1
					c1.2,0,2.1-0.1,2.1-0.1s0,2.8,0,4c0,1.3-1.7,1.6-1.7,2.2c0,0.2,0.6,0.3,1,0.3c0.9,0,2.8-0.8,2.8-2.1c0-1.1,0-4.6,0-5.2
					c0-1.4,0.7-1.8,0.7-1.8s0.1,7.2-0.2,8.2c-0.3,1.1-0.9,1-0.9,1.5c0,0.8,2.3,0.2,3-1.5c0.6-1.3,0.3-8.4,0.3-8.4l0.6,0
					c0,0,0,3.2,0,4.7c0,1.5-0.1,3.5,0.8,4.4c0.6,0.6,2.6,1.7,2.6,0.7c0-0.6-1.1-1-1.1-2.5v-7c0.9,0,0.7,2.3,0.7,2.3l0.1,4.3
					c0,0-0.2,1.6,1.7,2.2c0.7,0.2,2.1,0.3,2.2-0.1c0.1-0.4-1.7-1-1.7-2.2c0-0.7,0-1.2,0-4.4c0-3.2-0.4-4.4-1.9-5.3
					c4.6-0.5,7.5-1.6,8.9-4.7c1.6,0.1,5,0.2,8.9,1.4c0,0,0,0,0,0c0.1,0,0.1,0,0.1-0.1c0-0.1,0-0.2-0.1-0.2c-3.9-1.2-7.1-1.4-8.8-1.4
					c0.1-0.3,0.2-0.5,0.3-0.8C40.4,17,41.9,17.4,44,17.8L44,17.8z M8.8,22.6c-0.2,0-0.3-0.1-0.3-0.2s0.2-0.2,0.3-0.2
					c0.2,0,0.3,0.1,0.3,0.2C9.1,22.5,9,22.6,8.8,22.6L8.8,22.6z M9.5,23c0-0.1,0.2-0.2,0.3-0.2c0.2,0,0.3,0.1,0.3,0.2
					s-0.2,0.2-0.3,0.2C9.7,23.2,9.5,23.1,9.5,23L9.5,23z M10.2,23.7c0-0.1,0.2-0.2,0.3-0.2s0.3,0.1,0.3,0.2S10.7,24,10.5,24
					S10.2,23.9,10.2,23.7L10.2,23.7z M11.1,24.8c-0.2,0-0.3-0.1-0.3-0.2s0.2-0.2,0.3-0.2c0.2,0,0.3,0.1,0.3,0.2S11.2,24.8,11.1,24.8
					L11.1,24.8z M11.7,25.6c-0.2,0-0.3-0.1-0.3-0.2s0.2-0.2,0.3-0.2c0.2,0,0.3,0.1,0.3,0.2S11.9,25.6,11.7,25.6L11.7,25.6z
					 M12.6,26.3c-0.2,0-0.3-0.1-0.3-0.2c0-0.1,0.2-0.2,0.3-0.2c0.2,0,0.3,0.1,0.3,0.2C12.9,26.2,12.7,26.3,12.6,26.3L12.6,26.3z
					 M13.8,26.7c-0.2,0-0.3-0.1-0.3-0.2c0-0.1,0.2-0.2,0.3-0.2c0.2,0,0.3,0.1,0.3,0.2C14.1,26.6,14,26.7,13.8,26.7L13.8,26.7z
					 M15,26.7c-0.2,0-0.3-0.1-0.3-0.2c0-0.1,0.2-0.2,0.3-0.2c0.2,0,0.3,0.1,0.3,0.2C15.3,26.6,15.2,26.7,15,26.7L15,26.7z
					 M16.2,26.6c-0.2,0-0.3-0.1-0.3-0.2s0.2-0.2,0.3-0.2c0.2,0,0.3,0.1,0.3,0.2S16.4,26.6,16.2,26.6L16.2,26.6z M25.7,21.8
					c-1,0-2,0-3.1,0c-1.1,0-2.1,0-3-0.1c-5.1-0.2-7.9-2.3-7.9-6c0-0.4,0.1-1.7,1.1-3c1-1.2,2.6-1.9,4.5-1.9c0.1,0,0.4,0,0.9,0
					c1,0.1,2.8,0.2,4.5,0.2c1.5,0,3.1-0.1,4-0.2c0.4,0,0.6,0,0.7,0c4.1,0,5.6,2.6,5.6,5.1C32.9,18.5,31.7,21.6,25.7,21.8L25.7,21.8z
					"/>
				<path id="Shape_1_" class="st0" d="M7.8,25c0.8,0,0-1.2,0-1.8C7.8,23.8,7,25,7.8,25L7.8,25z"/>
				<path id="Shape_2_" class="st0" d="M23.4,19.7c-0.1,0-0.1,0.1-0.1,0.1c0,0.3-0.4,0.7-0.9,0.7c-0.1,0-0.1,0-0.2,0
					c-0.2,0-0.3-0.1-0.4-0.2c0,0,0,0-0.1-0.1c-0.1-0.1-0.1-0.1-0.2-0.2c-0.1-0.1-0.1-0.2-0.1-0.2c0-0.1-0.1-0.1-0.1-0.1
					S21,19.8,21,19.8c0,0,0,0.1,0,0.1c0,0.1,0.1,0.2,0.1,0.2c0.1,0.1,0.1,0.2,0.2,0.2c0.1,0.1,0.2,0.1,0.3,0.2
					c0.1,0.1,0.3,0.1,0.5,0.2c0.1,0,0.1,0,0.2,0c0.3,0,0.6-0.1,0.8-0.3c0,0,0.1,0,0.1-0.1c0.1,0,0.1-0.1,0.1-0.2
					c0.1-0.1,0.2-0.3,0.2-0.4c0,0,0-0.1,0-0.1C23.6,19.8,23.5,19.7,23.4,19.7L23.4,19.7z"/>
				<path id="Shape_3_" class="st0" d="M22.1,19C22.1,19,22.1,19.1,22.1,19c0.1,0.1,0.2,0.1,0.2,0.1c0,0,0.1,0,0.1,0
					c0.1,0,0.2,0,0.3-0.1c0,0,0.1,0,0.1-0.1c0,0,0.1-0.1,0.1-0.1c0-0.1,0-0.1,0-0.2c0-0.3-0.2-0.5-0.5-0.5c-0.1,0-0.3,0.1-0.4,0.2
					c0,0,0,0,0,0c0,0,0,0.1-0.1,0.1c0,0,0,0.1-0.1,0.2c0,0,0,0.1,0,0.1s0,0.1,0,0.1c0,0.1,0,0.1,0.1,0.2S22,19,22.1,19z"/>
				<path id="Shape_4_" class="st0" d="M18.1,13.5c-0.1-0.1-0.2-0.2-0.3-0.3c-0.1-0.1-0.2-0.2-0.4-0.2c-0.1-0.1-0.3-0.1-0.4-0.1
					c-0.1,0-0.1,0-0.2,0c-1.2,0-2.1,1.4-2.1,3.2s1,3,2.1,3c0.1,0,0.1,0,0.2,0c0.1,0,0.3-0.1,0.4-0.1c0.1-0.1,0.3-0.1,0.4-0.2
					c0.1-0.1,0.2-0.2,0.3-0.3c0.1-0.1,0.2-0.2,0.3-0.4c0.3-0.5,0.5-1.2,0.5-1.9c0-0.8-0.2-1.5-0.5-2C18.3,13.8,18.2,13.6,18.1,13.5
					L18.1,13.5z"/>
				<path id="Shape_5_" class="st0" d="M28.3,12.8c-1.2,0-2.1,1.4-2.1,3.2s1,3,2.1,3c1.2,0,2.1-1.2,2.1-3S29.5,12.8,28.3,12.8
					L28.3,12.8z"/>
			</g>
		</g>
	</g>
</g>
</svg>
