<?xml version="1.0" encoding="UTF-8" standalone="no"?>
<svg width="45px" height="36px" viewBox="0 0 45 36" version="1.1" xmlns="http://www.w3.org/2000/svg" xmlns:xlink="http://www.w3.org/1999/xlink">
    <!-- Generator: Sketch 3.6.1 (26313) - http://www.bohemiancoding.com/sketch -->
    <title>41-github</title>
    <desc>Created with Sketch.</desc>
    <defs></defs>
    <g id="Page-1" stroke="none" stroke-width="1" fill="none" fill-rule="evenodd">
        <g id="41-github" fill="#FFFFFF">
            <g id="Layer_1">
                <g id="Group">
                    <path d="M43.9612059,17.7670537 C43.9702059,17.7681073 43.9801765,17.7690732 43.9890882,17.7690732 C44.0587941,17.7690732 44.1225882,17.7184976 44.1355588,17.6471122 C44.1504706,17.5667707 44.0966471,17.4894146 44.016,17.4736098 C41.9765294,17.0998244 40.4842941,16.6863512 35.4498529,16.7280585 C35.7637059,15.5729854 35.9330294,14.2067415 35.9669118,12.5885854 C35.9589706,8.20132683 33.8487353,6.64972683 33.4432059,5.92094634 C34.041,2.59955122 33.3435882,1.08755122 33.0197647,0.56897561 C31.8241765,0.145580488 28.8600882,1.65766829 27.2410588,2.7234439 C24.6007941,1.95506341 19.0213235,2.02934634 16.929,2.92170732 C13.0682647,0.170341463 11.0257059,0.591717073 11.0257059,0.591717073 C11.0257059,0.591717073 9.70552941,2.94646829 10.677,6.3918439 C9.40667647,8.00297561 8.46017647,9.14320976 8.46017647,12.1651902 C8.46017647,13.8675512 8.66144118,15.3914049 9.11576471,16.7219122 C7.09517647,16.7169951 2.86014706,16.9876098 0.876441176,17.4754537 C0.796764706,17.4952976 0.747970588,17.5766049 0.766852941,17.6558927 C0.783794118,17.7233268 0.845558824,17.7688976 0.912352941,17.7688976 C0.924264706,17.7688976 0.936264706,17.7678439 0.948176471,17.7649463 C2.94988235,17.2721854 7.32635294,17.0044683 9.22332353,17.020361 C9.33194118,17.3069561 9.45352941,17.5845073 9.588,17.8531902 C4.71097059,17.9820878 3.39617647,18.6751317 1.34867647,19.1837854 C1.20026471,19.2214537 1.05476471,19.2571902 0.913323529,19.2918732 C0.833647059,19.3116293 0.783794118,19.3929366 0.803735294,19.4722244 C0.820676471,19.5396585 0.881382353,19.5852293 0.949235294,19.5852293 C0.961147059,19.5852293 0.973147059,19.5842634 0.985058824,19.581278 C1.1265,19.5456293 1.272,19.5098927 1.42147059,19.4722244 C3.47497059,18.961639 4.80767647,18.2645561 9.74347059,18.1466341 C11.1940588,20.7680488 13.9918235,22.3990244 18.7103824,22.8501659 C18.0368824,23.3587317 17.2278529,24.3244976 17.1163235,25.4408488 C16.2694412,25.9862049 14.5666765,26.1655902 13.2425294,25.7502732 C11.3873824,25.1672488 10.677,21.5117561 7.89926471,22.0322634 C7.29741176,22.1452683 7.41697059,22.5399512 7.93702941,22.8750146 C8.78391176,23.4202829 9.58102941,24.102439 10.1957647,25.5549073 C10.668,26.6702927 11.6603824,28.6632 14.7988235,28.6632 C16.0441765,28.6632 16.917,28.5144585 16.917,28.5144585 C16.917,28.5144585 16.9411765,31.3610927 16.9411765,32.4676098 C16.9411765,33.7435902 15.2105294,34.1035902 15.2105294,34.7172585 C15.2105294,34.9601268 15.7834412,34.9829561 16.2437647,34.9829561 C17.1533824,34.9829561 19.0464706,34.2273951 19.0464706,32.900839 C19.0464706,31.8469171 19.0634118,28.3033756 19.0634118,27.6836488 C19.0634118,26.3282927 19.7937353,25.8990146 19.7937353,25.8990146 C19.7937353,25.8990146 19.8844412,33.1337854 19.6193824,34.1034146 C19.3085294,35.2436488 18.7476176,35.082 18.7476176,35.5906537 C18.7476176,36.3471805 21.0262059,35.7760976 21.7814118,34.1153561 C22.3652647,32.8224293 22.1101765,25.7255122 22.1101765,25.7255122 L22.7328529,25.7126927 C22.7328529,25.7126927 22.7677941,28.9617366 22.7467941,30.4469561 C22.7249118,31.9846829 22.6202647,33.93 23.5378235,34.847122 C24.1406471,35.4499024 26.0954118,36.5078634 26.0954118,35.5411317 C26.0954118,34.9789171 25.0243235,34.5169756 25.0243235,32.9960195 L25.0243235,25.9982341 C25.8791471,25.9982341 25.7506765,28.2994244 25.7506765,28.2994244 L25.8134118,32.5746439 C25.8134118,32.5746439 25.6251176,34.1322146 27.5062059,34.7846049 C28.1698235,35.0156195 29.5905,35.0781366 29.6572941,34.690478 C29.724,34.3018537 27.9465882,33.7237463 27.9306176,32.5171317 C27.9206471,31.7815024 27.9635294,31.3521366 27.9635294,28.1546341 C27.9635294,24.9572195 27.5320588,23.7753659 26.0286176,22.8334829 C30.6685588,22.3585463 33.54,21.2163805 34.9398529,18.1566439 C36.5479412,18.209239 39.9151765,18.3728195 43.8287647,19.5635415 C43.8427059,19.5685463 43.8577059,19.570478 43.8726176,19.570478 C43.9364118,19.570478 43.9951765,19.5288585 44.0151176,19.4653756 C44.0389412,19.3860878 43.9951765,19.302761 43.9155,19.2789659 C40.0556471,18.1040488 36.7910294,17.9206244 35.0674412,17.8631122 C35.1759706,17.5974146 35.2756765,17.3188098 35.3643529,17.0263317 C40.4275588,16.9798829 41.9237647,17.3923024 43.9612059,17.7670537 L43.9612059,17.7670537 Z M8.80870588,22.6310927 C8.62297059,22.6310927 8.47244118,22.5311707 8.47244118,22.4079805 C8.47244118,22.2847902 8.62297059,22.1849561 8.80870588,22.1849561 C8.99435294,22.1849561 9.14497059,22.284878 9.14497059,22.4079805 C9.14497059,22.5311707 8.99435294,22.6310927 8.80870588,22.6310927 L8.80870588,22.6310927 Z M9.51855882,22.9740585 C9.51855882,22.8508683 9.66908824,22.7509463 9.85473529,22.7509463 C10.0404706,22.7509463 10.191,22.8508683 10.191,22.9740585 C10.191,23.0972488 10.0404706,23.1970829 9.85473529,23.1970829 C9.66908824,23.1970829 9.51855882,23.0972488 9.51855882,22.9740585 L9.51855882,22.9740585 Z M10.1578235,23.7300585 C10.1578235,23.6068683 10.3084412,23.5069463 10.4940882,23.5069463 C10.6797353,23.5069463 10.8303529,23.6068683 10.8303529,23.7300585 C10.8303529,23.8532488 10.6797353,23.9530829 10.4940882,23.9530829 C10.3084412,23.9530829 10.1578235,23.8532488 10.1578235,23.7300585 L10.1578235,23.7300585 Z M11.0545588,24.8083024 C10.8688235,24.8083024 10.7182059,24.7083805 10.7182059,24.5851902 C10.7182059,24.462 10.8688235,24.362078 11.0545588,24.362078 C11.2402059,24.362078 11.3908235,24.462 11.3908235,24.5851902 C11.3908235,24.7083805 11.2402941,24.8083024 11.0545588,24.8083024 L11.0545588,24.8083024 Z M11.6939118,25.6138244 C11.5081765,25.6138244 11.3576471,25.5139902 11.3576471,25.3908 C11.3576471,25.2676098 11.5081765,25.1676878 11.6939118,25.1676878 C11.8795588,25.1676878 12.0300882,25.2676098 12.0300882,25.3908 C12.0300882,25.5139902 11.8795588,25.6138244 11.6939118,25.6138244 L11.6939118,25.6138244 Z M12.5572941,26.2996683 C12.3716471,26.2996683 12.2211176,26.1997463 12.2211176,26.0765561 C12.2211176,25.9533659 12.3716471,25.8535317 12.5572941,25.8535317 C12.7430294,25.8535317 12.8935588,25.9534537 12.8935588,26.0765561 C12.8935588,26.1997463 12.7430294,26.2996683 12.5572941,26.2996683 L12.5572941,26.2996683 Z M13.7654118,26.7458049 C13.5796765,26.7458049 13.4291471,26.6458829 13.4291471,26.5226927 C13.4291471,26.3995024 13.5796765,26.2996683 13.7654118,26.2996683 C13.9510588,26.2996683 14.1016765,26.3995902 14.1016765,26.5226927 C14.1016765,26.6458829 13.9511471,26.7458049 13.7654118,26.7458049 L13.7654118,26.7458049 Z M14.9775882,26.7458049 C14.7918529,26.7458049 14.6413235,26.6458829 14.6413235,26.5226927 C14.6413235,26.3995024 14.7918529,26.2996683 14.9775882,26.2996683 C15.1632353,26.2996683 15.3137647,26.3995902 15.3137647,26.5226927 C15.3138529,26.6458829 15.1633235,26.7458049 14.9775882,26.7458049 L14.9775882,26.7458049 Z M16.194,26.5557073 C16.0083529,26.5557073 15.8577353,26.4558732 15.8577353,26.3326829 C15.8577353,26.2094927 16.0083529,26.1096585 16.194,26.1096585 C16.3797353,26.1096585 16.5303529,26.2094927 16.5303529,26.3326829 C16.5303529,26.4558732 16.3797353,26.5557073 16.194,26.5557073 L16.194,26.5557073 Z M25.7179412,21.8068683 C24.7150588,21.8399707 23.6749412,21.8567415 22.6273235,21.8567415 C21.5693824,21.8567415 20.5480588,21.8396195 19.5922059,21.805639 C14.4945882,21.6277463 11.6869412,19.4868 11.6869412,15.7775707 C11.6869412,15.3923707 11.7688235,14.0383317 12.8235,12.7800878 C13.8485294,11.5572293 15.4191176,10.9105463 17.3656765,10.9105463 C17.4982941,10.9105463 17.7356471,10.925122 18.2172353,10.9548 C19.2493235,11.018722 20.9768824,11.1255805 22.6875,11.1255805 C24.2363824,11.1255805 25.8030882,11.0117854 26.6447647,10.9504976 C27.0387353,10.9216976 27.1969412,10.9105463 27.2986765,10.9105463 C31.4394706,10.9105463 32.9147647,13.5433756 32.9147647,16.0070927 C32.9148529,18.5458829 31.6662353,21.6129951 25.7179412,21.8068683 L25.7179412,21.8068683 Z" id="Shape"></path>
                    <path d="M7.79585294,25.0148195 C8.59817647,25.0148195 7.80944118,23.7764195 7.79576471,23.1971707 C7.79214706,23.7609659 6.99352941,25.0148195 7.79585294,25.0148195 L7.79585294,25.0148195 Z" id="Shape"></path>
                    <path d="M23.4215294,19.685678 C23.3389412,19.685678 23.2720588,19.752322 23.2720588,19.8344195 C23.2720588,20.1621073 22.8850588,20.5284293 22.3671176,20.5284293 C22.2923824,20.5284293 22.2204706,20.5202634 22.1517353,20.5055122 C21.9797647,20.468722 21.8279118,20.3913659 21.7036765,20.3004 C21.6787941,20.2822244 21.6550588,20.2634341 21.6324706,20.2443805 C21.5647059,20.1872195 21.5075294,20.1270732 21.4624412,20.0697366 C21.3873529,19.9742927 21.3458824,19.886839 21.3458824,19.8344195 C21.3458824,19.752322 21.279,19.685678 21.1964118,19.685678 C21.1138235,19.685678 21.0469412,19.752322 21.0469412,19.8344195 C21.0469412,19.8768293 21.0556765,19.9241561 21.0723529,19.9744683 C21.0975,20.0498927 21.1406471,20.1321659 21.1995,20.2147902 C21.2583529,20.2974146 21.333,20.3803902 21.4209706,20.4574829 C21.5089412,20.5344878 21.6104118,20.605522 21.7229118,20.6643512 C21.8635588,20.7377561 22.0215,20.7919317 22.1922353,20.8144976 C22.2491471,20.821961 22.3074706,20.826 22.3670294,20.826 C22.6774412,20.826 22.9466471,20.7259024 23.1513529,20.5741756 C23.1805588,20.5524878 23.2085294,20.5297463 23.235,20.5061268 C23.2880294,20.4588 23.3355882,20.4078732 23.3770588,20.3543122 C23.4806471,20.2204976 23.5462059,20.070878 23.5651765,19.9229268 C23.5689706,19.8933366 23.5709118,19.8638341 23.5709118,19.8345073 C23.571,19.7522341 23.5040294,19.685678 23.4215294,19.685678 L23.4215294,19.685678 Z" id="Shape"></path>
                    <path d="M22.0626176,19.0280195 C22.0831765,19.0418049 22.1047941,19.0541854 22.1272941,19.0649854 C22.1722941,19.0865854 22.2209118,19.1018634 22.2720882,19.1095902 C22.2976765,19.1134537 22.3238824,19.1154732 22.3505294,19.1154732 C22.4571176,19.1154732 22.5562059,19.0832488 22.6383529,19.0279317 C22.6725882,19.0049268 22.7039118,18.9779707 22.7316176,18.9475902 C22.7701765,18.9053561 22.7985,18.8549561 22.8212647,18.8015707 C22.8474706,18.7401073 22.8652941,18.6741659 22.8652941,18.6031317 C22.8652941,18.3202244 22.6348235,18.0907902 22.3505294,18.0907902 C22.2083824,18.0907902 22.0797353,18.1481268 21.9865588,18.2409366 C21.9825,18.2449756 21.9795,18.2499805 21.9755294,18.2541951 C21.9490588,18.2823805 21.9265588,18.3138146 21.9069706,18.3473561 C21.8795294,18.3944195 21.8575588,18.4449951 21.8462647,18.499961 C21.8393824,18.5333268 21.8358529,18.5678341 21.8358529,18.6032195 C21.8358529,18.6386049 21.8394706,18.6731122 21.8462647,18.706478 C21.8598529,18.7732098 21.8865882,18.8351122 21.9235588,18.889639 C21.9605294,18.9441659 22.0078235,18.9912293 22.0626176,19.0280195 Z" id="Shape"></path>
                    <path d="M18.1117059,13.5174732 C18.0063529,13.3884878 17.8924412,13.2742537 17.7714706,13.176878 C17.6505,13.0795024 17.5224706,12.9988098 17.3888824,12.9372585 C17.2552941,12.8757073 17.1159706,12.8329463 16.9725,12.8113463 C16.9007647,12.8005463 16.8279706,12.7950146 16.7542941,12.7950146 C15.5758235,12.7950146 14.6205,14.2117463 14.6205,15.9594146 C14.6205,17.7070829 15.5758235,18.9255512 16.7542941,18.9255512 C16.8279706,18.9255512 16.9007647,18.9208098 16.9725,18.9114146 C17.1159706,18.8927122 17.2552059,18.8556585 17.3888824,18.8015707 C17.5224706,18.7474829 17.6505,18.6764488 17.7714706,18.5896098 C17.8923529,18.5028585 18.0062647,18.4003902 18.1117059,18.2836098 C18.2170588,18.1668293 18.3139412,18.0357366 18.4009412,17.8916488 C18.7053529,17.3873854 18.8881765,16.7240195 18.8881765,15.9594146 C18.8881765,15.1948098 18.7053529,14.4935122 18.4009412,13.9464878 C18.3140294,13.7901073 18.2170588,13.6464585 18.1117059,13.5174732 L18.1117059,13.5174732 Z" id="Shape"></path>
                    <path d="M28.2869118,12.794839 C27.1084412,12.794839 26.1531176,14.2115707 26.1531176,15.959239 C26.1531176,17.7069073 27.1083529,18.9253756 28.2869118,18.9253756 C29.4654706,18.9253756 30.4207059,17.7069073 30.4207059,15.959239 C30.4207059,14.2115707 29.4654706,12.794839 28.2869118,12.794839 L28.2869118,12.794839 Z" id="Shape"></path>
                </g>
            </g>
        </g>
    </g>
</svg>