<svg id="Layer_1" data-name="Layer 1" xmlns="http://www.w3.org/2000/svg" xmlns:xlink="http://www.w3.org/1999/xlink" viewBox="0 0 53.4 45.4"><defs><style>.cls-1{fill:none;}.cls-2{clip-path:url(#clip-path);}.cls-3{fill:#fff;}.cls-4{clip-path:url(#clip-path-2);}.cls-5{clip-path:url(#clip-path-3);}.cls-6{clip-path:url(#clip-path-4);}.cls-7{clip-path:url(#clip-path-5);}.cls-8{clip-path:url(#clip-path-6);}</style><clipPath id="clip-path" transform="translate(5 5)"><path class="cls-1" d="M25,21.3H21.9a28.12,28.12,0,0,1-3-.1c-5.1-.2-7.9-2.3-7.9-6a5.13,5.13,0,0,1,1.1-3,5.72,5.72,0,0,1,4.5-1.9h0.9c1,0.1,2.8.2,4.5,0.2,1.5,0,3.1-.1,4-0.2h0.7c4.1,0,5.6,2.6,5.6,5.1S30.9,21.1,25,21.3Zm-9.6,4.8a0.25,0.25,0,0,1-.3-0.2,0.34,0.34,0,0,1,.3-0.2,0.25,0.25,0,0,1,.3.2C15.8,26,15.6,26.1,15.4,26.1Zm-1.2.1a0.25,0.25,0,0,1-.3-0.2,0.34,0.34,0,0,1,.3-0.2,0.25,0.25,0,0,1,.3.2C14.6,26.1,14.4,26.2,14.2,26.2Zm-1.2,0a0.25,0.25,0,0,1-.3-0.2,0.34,0.34,0,0,1,.3-0.2A0.22,0.22,0,1,1,13,26.2Zm-1.2-.4a0.25,0.25,0,0,1-.3-0.2,0.34,0.34,0,0,1,.3-0.2A0.22,0.22,0,1,1,11.8,25.8Zm-0.9-.7a0.25,0.25,0,0,1-.3-0.2,0.34,0.34,0,0,1,.3-0.2,0.25,0.25,0,0,1,.3.2C11.3,25,11.1,25.1,10.9,25.1Zm-0.6-.8a0.25,0.25,0,0,1-.3-0.2,0.34,0.34,0,0,1,.3-0.2A0.22,0.22,0,1,1,10.3,24.3ZM9.4,23.2a0.32,0.32,0,0,1,.6,0,0.34,0.34,0,0,1-.3.2A0.24,0.24,0,0,1,9.4,23.2Zm-0.6-.7a0.34,0.34,0,0,1,.3-0.2,0.25,0.25,0,0,1,.3.2,0.34,0.34,0,0,1-.3.2A0.25,0.25,0,0,1,8.8,22.5ZM8,22.1a0.25,0.25,0,0,1-.3-0.2A0.34,0.34,0,0,1,8,21.7a0.25,0.25,0,0,1,.3.2C8.4,22,8.2,22.1,8,22.1Zm35.2-4.8h0c0.1,0,.2,0,0.2-0.1s0-.2-0.1-0.2a30.93,30.93,0,0,0-8.6-.7,16.42,16.42,0,0,0,.5-4.1c0-4.4-2.1-5.9-2.5-6.7,0.6-3.3-.1-4.8-0.4-5.4-1.2-.4-4.2,1.1-5.8,2.2-2.6-.8-8.2-0.7-10.3.2C12.3-.3,10.3.2,10.3,0.2a7.47,7.47,0,0,0-.4,5.7,7.74,7.74,0,0,0-2.2,5.8,13.46,13.46,0,0,0,.7,4.6,44.69,44.69,0,0,0-8.2.8C0,17,0,17.1,0,17.2a0.1,0.1,0,0,0,.1.1h0a39.34,39.34,0,0,1,8.3-.7,2,2,0,0,0,.4.8A25.51,25.51,0,0,0,.6,18.7c-0.1,0-.3.1-0.4,0.1A0.22,0.22,0,0,0,0,19a0.1,0.1,0,0,0,.1.1h0A1.49,1.49,0,0,1,.7,19,25.72,25.72,0,0,1,9,17.7c1.5,2.6,4.2,4.3,9,4.7A3.91,3.91,0,0,0,16.4,25a5.53,5.53,0,0,1-3.9.3c-1.9-.6-2.6-4.2-5.3-3.7-0.6.1-.5,0.5,0,0.8a5.8,5.8,0,0,1,2.3,2.7,4.63,4.63,0,0,0,4.6,3.1c1.2,0,2.1-.1,2.1-0.1v4c0,1.3-1.7,1.6-1.7,2.2a1.18,1.18,0,0,0,1,.3c0.9,0,2.8-.8,2.8-2.1V27.3a2,2,0,0,1,.7-1.8s0.1,7.2-.2,8.2-0.9,1-.9,1.5c0,0.8,2.3.2,3-1.5,0.6-1.3.3-8.4,0.3-8.4h0.6V30c0,1.5-.1,3.5.8,4.4,0.6,0.6,2.6,1.7,2.6.7,0-.6-1.1-1-1.1-2.5v-7c0.9,0,.7,2.3.7,2.3l0.1,4.3a2.13,2.13,0,0,0,1.7,2.2c0.7,0.2,2.1.3,2.2-.1s-1.7-1-1.7-2.2V27.7c0-3.2-.4-4.4-1.9-5.3,4.6-.5,7.5-1.6,8.9-4.7A35.72,35.72,0,0,1,43,19.1h0c0.1,0,.1,0,0.1-0.1s0-.2-0.1-0.2a30.45,30.45,0,0,0-8.8-1.4c0.1-.3.2-0.5,0.3-0.8A31.33,31.33,0,0,1,43.2,17.3Z"/></clipPath><clipPath id="clip-path-2" transform="translate(5 5)"><path class="cls-1" d="M7,24.5c0.8,0,0-1.2,0-1.8C7,23.3,6.2,24.5,7,24.5Z"/></clipPath><clipPath id="clip-path-3" transform="translate(5 5)"><path class="cls-1" d="M22.7,19.2a0.1,0.1,0,0,0-.1.1,0.89,0.89,0,0,1-.9.7H21.5a0.52,0.52,0,0,1-.4-0.2L21,19.7l-0.2-.2a0.31,0.31,0,0,1-.1-0.2,0.1,0.1,0,0,0-.2,0v0.1a0.35,0.35,0,0,0,.1.2,0.38,0.38,0,0,0,.2.2c0.1,0.1.2,0.1,0.3,0.2a2.57,2.57,0,0,0,.5.2h0.2a1.14,1.14,0,0,0,.8-0.3,0.1,0.1,0,0,0,.1-0.1c0.1,0,.1-0.1.1-0.2a0.76,0.76,0,0,0,.2-0.4V19.1C22.8,19.3,22.7,19.2,22.7,19.2Z"/></clipPath><clipPath id="clip-path-4" transform="translate(5 5)"><path class="cls-1" d="M21.3,18.5h0a0.31,0.31,0,0,0,.2.1h0.1a0.37,0.37,0,0,0,.3-0.1,0.1,0.1,0,0,0,.1-0.1l0.1-.1V18.1a0.47,0.47,0,0,0-.5-0.5,0.76,0.76,0,0,0-.4.2h0a0.1,0.1,0,0,1-.1.1,0.31,0.31,0,0,1-.1.2v0.2a0.2,0.2,0,0,0,.1.2C21.2,18.4,21.2,18.5,21.3,18.5Z"/></clipPath><clipPath id="clip-path-5" transform="translate(5 5)"><path class="cls-1" d="M17.3,13L17,12.7a0.52,0.52,0,0,0-.4-0.2,0.6,0.6,0,0,0-.4-0.1H16c-1.2,0-2.1,1.4-2.1,3.2s1,3,2.1,3h0.2c0.1,0,.3-0.1.4-0.1s0.3-.1.4-0.2l0.3-.3a1.38,1.38,0,0,0,.3-0.4,3.83,3.83,0,0,0,.5-1.9,3.94,3.94,0,0,0-.5-2A0.78,0.78,0,0,0,17.3,13Z"/></clipPath><clipPath id="clip-path-6" transform="translate(5 5)"><path class="cls-1" d="M27.5,12.3c-1.2,0-2.1,1.4-2.1,3.2s1,3,2.1,3,2.1-1.2,2.1-3S28.7,12.3,27.5,12.3Z"/></clipPath></defs><title>github-icon</title><g id="Layer_1-2" data-name="Layer 1"><g class="cls-2"><rect class="cls-3" width="53.4" height="45.4"/></g><g class="cls-4"><rect class="cls-3" x="6.7" y="22.7" width="10.7" height="11.8"/></g><g class="cls-5"><rect class="cls-3" x="20.3" y="19.2" width="12.5" height="11.1"/></g><g class="cls-6"><rect class="cls-3" x="21.1" y="17.6" width="11" height="11"/></g><g class="cls-7"><rect class="cls-3" x="13.9" y="12.3" width="14.3" height="16.1"/></g><g class="cls-8"><rect class="cls-3" x="25.4" y="12.3" width="14.3" height="16.1"/></g></g></svg>