<svg id="Layer_1" data-name="Layer 1" xmlns="http://www.w3.org/2000/svg" xmlns:xlink="http://www.w3.org/1999/xlink" viewBox="0 0 43.42 43.64"><defs><style>.cls-1{fill:none;clip-rule:evenodd;}.cls-2{clip-path:url(#clip-path);}.cls-3{fill:#fff;}</style><clipPath id="clip-path" transform="translate(4.81 4.75)"><path class="cls-1" d="M28.52,28.41h-5V20.28c0-2-.73-3.43-2.56-3.43a2.77,2.77,0,0,0-2.59,1.85,3.46,3.46,0,0,0-.17,1.23v8.48h-5s0.07-13.76,0-15.19h5v2.15a5,5,0,0,1,4.55-2.51c3.32,0,5.81,2.17,5.81,6.84v8.71h0ZM7.79,11.14h0A2.63,2.63,0,1,1,7.83,5.9,2.63,2.63,0,1,1,7.79,11.14Zm2.52,17.26h-5V13.22h5V28.41ZM31.14,0.25H2.66A2.44,2.44,0,0,0,.19,2.66V31.48a2.44,2.44,0,0,0,2.47,2.41H31.14a2.44,2.44,0,0,0,2.47-2.41V2.66A2.44,2.44,0,0,0,31.14.25Z"/></clipPath></defs><title>Untitled-3</title><g class="cls-2"><rect class="cls-3" width="43.42" height="43.64"/></g></svg>