<?xml version="1.0" encoding="UTF-8" standalone="no"?>
<svg width="54px" height="122px" viewBox="-2 0 59 124" version="1.1" xmlns="http://www.w3.org/2000/svg" xmlns:xlink="http://www.w3.org/1999/xlink">
    <!-- Generator: Sketch 3.6.1 (26313) - http://www.bohemiancoding.com/sketch -->
    <title>Group 6</title>
    <desc>Created with Sketch.</desc>
    <defs></defs>
    <g id="Page-1" stroke="none" stroke-width="1" fill="none" fill-rule="evenodd">
        <g id="Management-Icon" transform="translate(-36.000000, 0.000000)" stroke="#FFFFFF">
            <g id="Group-6" transform="translate(36.000000, 3.000000)">
                <ellipse id="Oval-6" stroke-width="5" cx="27" cy="18" rx="18" ry="18"></ellipse>
                <path d="M38.3196733,42 L46.1443828,42 C50.4829204,42 54,44.9713105 54,48.6316204 L54,112.36838 C54,116.030922 50.4777395,119 46.1479364,119 L7.85206363,119 C3.51548863,119 0,116.02869 0,112.36838 L0,48.6316204 C0,44.9690776 3.51804191,42 7.85900328,42 L16.3668324,42" id="Rectangle-12" stroke-width="5"></path>
                <polygon id="Star-1" stroke-width="2" points="26.5143433 76.7375388 18.7800538 80.8036954 20.2571716 72.1914375 14 66.0922026 22.6471985 64.8356911 26.5143433 57 30.381488 64.8356911 39.0286865 66.0922026 32.7715149 72.1914375 34.2486328 80.8036954 "></polygon>
            </g>
        </g>
    </g>
</svg>
