<?xml version="1.0" encoding="utf-8"?>
<!-- Generator: Adobe Illustrator 19.2.1, SVG Export Plug-In . SVG Version: 6.00 Build 0)  -->
<svg version="1.1" id="Layer_1" xmlns="http://www.w3.org/2000/svg" xmlns:xlink="http://www.w3.org/1999/xlink" x="0px" y="0px"
	 viewBox="0 0 290.8 250.7" enable-background="new 0 0 290.8 250.7" xml:space="preserve">
<g>
	<path fill="#FFFFFF" d="M142.4,62.7c-2.4,4-5.5,7.6-7.1,11.9c-20.9,56.6-41.6,113.3-62.3,170c-0.7,2-1.5,4-2.3,6.1
		c-23.5,0-46.8,0-70.7,0c1.3-3.8,2.6-7.3,3.9-10.8C24.1,184.4,44.4,129,64.7,73.5C67.8,65,71,62.7,79.8,62.7
		C101,62.6,122.1,62.7,142.4,62.7z"/>
	<path fill="#FFFFFF" d="M220.3,0c23.4,0,46.7,0,70.5,0c-0.4,1.5-0.7,2.9-1.2,4.2c-21,57.5-42,114.9-63,172.4
		c-3.4,9.3-6.4,11.4-16.3,11.4c-19.3,0-38.6,0-58,0c-1.5,0-2.9,0-3.3,0c2.6-4.8,5.8-9.5,7.7-14.7c20.6-55.9,40.9-111.8,61.4-167.7
		C218.7,3.8,219.5,2,220.3,0z"/>
	<path fill="#FFFFFF" d="M151.7,67.9c4.8,0,8.5,2.2,10.3,6.6c4.2,10.5,8,21.1,11.8,31.7c0.5,1.4-0.1,3.3-0.6,4.8
		c-7.5,20.8-15,41.6-22.8,62.2c-1.2,3.2-3.5,6.7-6.3,8.5c-5.3,3.3-12.3,0.8-15-5.4c-4.4-10.4-8.1-21.1-12-31.7
		c-0.4-1.2,0.1-2.9,0.6-4.3c7.6-21.1,15.4-42.1,23.1-63.2C142.7,72,145.4,67.8,151.7,67.9z"/>
</g>
</svg>
