<?xml version="1.0" encoding="utf-8"?>
<!-- Generator: Adobe Illustrator 19.2.1, SVG Export Plug-In . SVG Version: 6.00 Build 0)  -->
<svg version="1.1" id="Layer_1" xmlns="http://www.w3.org/2000/svg" xmlns:xlink="http://www.w3.org/1999/xlink" x="0px" y="0px"
	 viewBox="0 0 37 30" style="enable-background:new 0 0 37 30;" xml:space="preserve">
<style type="text/css">
	.st0{fill:#FFFFFF;}
</style>
<title>03-twitter</title>
<desc>Created with Sketch.</desc>
<g id="Page-1">
	<g id="_x30_3-twitter">
		<g id="Layer_1_1_">
			<path id="Shape" class="st0" d="M37,3.6c-1.4,0.6-2.8,1-4.4,1.2c1.6-0.9,2.8-2.4,3.3-4.2c-1.5,0.9-3.1,1.5-4.8,1.8
				C29.7,0.9,27.8,0,25.6,0C21.4,0,18,3.4,18,7.6c0,0.6,0.1,1.2,0.2,1.7C11.9,9,6.3,6,2.6,1.4c-0.7,1.1-1,2.4-1,3.8
				c0,2.6,1.3,5,3.4,6.3c-1.2,0-2.4-0.4-3.4-0.9c0,0,0,0.1,0,0.1c0,3.7,2.6,6.7,6.1,7.4c-0.6,0.2-1.3,0.3-2,0.3c-0.5,0-1,0-1.4-0.1
				c1,3,3.8,5.2,7.1,5.3c-2.6,2-5.9,3.2-9.4,3.2c-0.6,0-1.2,0-1.8-0.1C3.4,28.8,7.3,30,11.6,30c13.9,0,21.6-11.6,21.6-21.6
				c0-0.3,0-0.7,0-1C34.7,6.4,35.9,5.1,37,3.6L37,3.6z"/>
		</g>
	</g>
</g>
</svg>
