<svg id="Layer_1" data-name="Layer 1" xmlns="http://www.w3.org/2000/svg" xmlns:xlink="http://www.w3.org/1999/xlink" viewBox="0 0 46.96 40.04"><defs><style>.cls-1{fill:none;clip-rule:evenodd;}.cls-2{clip-path:url(#clip-path);}.cls-3{fill:#fff;}</style><clipPath id="clip-path" transform="translate(5 4.67)"><path class="cls-1" d="M37,3.89A15.11,15.11,0,0,1,32.6,5.08,7.6,7.6,0,0,0,35.94.89a15.18,15.18,0,0,1-4.81,1.84A7.59,7.59,0,0,0,18.2,9.64,21.52,21.52,0,0,1,2.57,1.72,7.59,7.59,0,0,0,4.92,11.84a7.56,7.56,0,0,1-3.43-.95s0,0.06,0,.1a7.59,7.59,0,0,0,6.08,7.43,7.6,7.6,0,0,1-3.42.13,7.59,7.59,0,0,0,7.08,5.27,15.21,15.21,0,0,1-9.42,3.25A15.53,15.53,0,0,1,0,27a21.46,21.46,0,0,0,11.62,3.41c13.95,0,21.57-11.55,21.57-21.57,0-.33,0-0.66,0-1A15.39,15.39,0,0,0,37,3.89Z"/></clipPath></defs><title>Untitled-2</title><g class="cls-2"><rect class="cls-3" width="46.96" height="40.04"/></g></svg>